<?xml version="1.0" encoding="UTF-8" standalone="no"?>
<svg
   xmlns:dc="http://purl.org/dc/elements/1.1/"
   xmlns:cc="http://creativecommons.org/ns#"
   xmlns:rdf="http://www.w3.org/1999/02/22-rdf-syntax-ns#"
   xmlns:svg="http://www.w3.org/2000/svg"
   xmlns="http://www.w3.org/2000/svg"
   xmlns:sodipodi="http://sodipodi.sourceforge.net/DTD/sodipodi-0.dtd"
   xmlns:inkscape="http://www.inkscape.org/namespaces/inkscape"
   viewBox="0 0 270.61644 316.60689"
   height="316.6069"
   width="270.61646"
   xml:space="preserve"
   id="svg2"
   version="1.1"
   sodipodi:docname="logo.svg"
   inkscape:version="0.92.3 (2405546, 2018-03-11)"><sodipodi:namedview
     pagecolor="#ffffff"
     bordercolor="#666666"
     borderopacity="1"
     objecttolerance="10"
     gridtolerance="10"
     guidetolerance="10"
     inkscape:pageopacity="0"
     inkscape:pageshadow="2"
     inkscape:window-width="1920"
     inkscape:window-height="1001"
     id="namedview5152"
     showgrid="false"
     inkscape:zoom="0.75749994"
     inkscape:cx="-202.08584"
     inkscape:cy="-166.74686"
     inkscape:window-x="-9"
     inkscape:window-y="-9"
     inkscape:window-maximized="1"
     inkscape:current-layer="g12" /><metadata
     id="metadata8"><rdf:RDF><cc:Work
         rdf:about=""><dc:format>image/svg+xml</dc:format><dc:type
           rdf:resource="http://purl.org/dc/dcmitype/StillImage" /><dc:title /></cc:Work></rdf:RDF></metadata><defs
     id="defs6" /><g
     transform="matrix(1.3333333,0,0,-1.3333333,-4.9029605,1065.1218)"
     id="g10"><g
       transform="scale(0.1)"
       id="g12"><path
   id="path18"
   style="fill:#758f93;fill-opacity:1;fill-rule:evenodd;stroke:none"
   d="m 479.43564,7824.653 c -346.02,-236.25 -522.409997,-673.23 -407.839997,-1100.88 145.079997,-541.4 701.549997,-862.66 1242.929957,-717.6 442.38,118.53 737.74,511.7 751.87,946.87 -61.22,-357.14 -323.42,-663.95 -696.4,-763.89 -510.95996,-136.92 -1036.12996,166.3 -1173.02996,677.24 -96.17,358.9 24.81,724.82 282.47,958.26 v 0"
   inkscape:connector-curvature="0" /><path
   id="path20"
   style="fill:#52c4af;fill-opacity:1;fill-rule:evenodd;stroke:none"
   d="m 1613.6356,6424.533 c 291.96,199.37 440.82,568.08 344.13,928.95 -122.42,456.85 -591.98,727.96 -1048.81996,605.53 -373.28,-100.01 -622.51,-431.77 -634.43,-798.99 51.65,301.38 272.89,560.27 587.63,644.59 431.15996,115.53 874.30996,-140.31 989.83996,-571.47 81.14,-302.86 -20.95,-611.63 -238.35,-808.61 v 0"
   inkscape:connector-curvature="0" /><path
   id="path40"
   style="fill:#758f93;fill-opacity:1;fill-rule:evenodd;stroke:none"
   d="m 1213.2256,6775.803 c 67.58,8.82 131.58,44.39 190.23,106.62 8.95,8.92 12.45,21.33 10.67,31.98 76.44,92.46 122.7,220.48 122.7,318.26 0,151.15 -72.92,167.13 -192.02,192.02 h -1.76 c -7.15,14.23 -21.31,24.9 -39.18,24.9 -26.66,0 -46.2,-19.57 -46.2,-44.46 0.07,-23.13 19.54,-40.94 46.2,-40.94 8.95,0 19.6,3.57 26.76,8.97 v 0 c 117.3,-24.89 149.34,-32.04 149.34,-140.49 0,-85.31 -44.52,-200.9 -110.29,-284.46 -12.47,0 -23.06,-5.33 -30.21,-14.19 -35.54,-35.6 -88.88,-80.03 -154.64,-80.03 -64,0 -119.11,44.43 -152.91,80.03 -7.13,8.86 -19.61,12.43 -30.21,14.19 -65.81996,83.56 -110.24996,199.15 -110.24996,284.46 0,108.45 30.27,115.6 147.57996,140.49 v 0 c 8.94,-5.4 17.78,-8.97 28.46,-8.97 24.86,0 46.1,17.81 46.1,40.94 0,24.89 -21.24,44.46 -46.1,44.46 -17.77,0 -33.81,-10.67 -40.95,-24.9 v 0 c -120.85996,-24.89 -193.77996,-40.87 -193.77996,-192.02 0,-97.78 48.03,-225.8 124.44,-320.02 -1.76,-8.89 1.81,-21.3 8.95,-30.22 58.62996,-62.23 120.87996,-97.8 186.65996,-106.62 l -1.79,-190.25 c 0,-131.59 -113.82,-238.28 -254.24996,-238.28 -140.48,0 -255.95,106.69 -255.95,238.28 v 167.12 c 81.75,12.41 143.98,78.17 143.98,158.22 0,87.12 -78.23,159.97 -172.51,159.97 -94.15,0 -172.38,-72.85 -172.38,-159.97 0,-80.05 62.23,-145.81 143.98,-158.22 v -167.12 c 0,-161.81 140.44,-291.63 312.88,-291.63 172.43996,0 312.91996,129.77 312.91996,291.63 v 190.25 h 3.53"
   inkscape:connector-curvature="0" /><path
   id="path42"
   style="fill:#52c4af;fill-opacity:1;fill-rule:evenodd;stroke:none"
   d="m 612.29564,6802.433 c 62.25,0 113.85,47.97 113.85,108.46 0,58.61 -51.6,106.63 -113.85,106.63 -64,0.05 -113.77,-48.02 -113.77,-106.63 0,-60.49 49.77,-108.46 113.77,-108.46 v 0"
   inkscape:connector-curvature="0" /><text
   xml:space="preserve"
   style="font-style:normal;font-weight:normal;font-size:300px;line-height:1.25;font-family:sans-serif;letter-spacing:0px;word-spacing:0px;fill:#52c4af;fill-opacity:1;stroke:none;stroke-width:7.5"
   x="282.17834"
   y="-5613.8618"
   id="text5188"
   transform="scale(1,-1)"><tspan
     sodipodi:role="line"
     id="tspan5186"
     x="282.17834"
     y="-5613.8618"
     style="font-style:normal;font-variant:normal;font-weight:normal;font-stretch:normal;font-family:'Gill Sans Ultra Bold';-inkscape-font-specification:'Gill Sans Ultra Bold, ';fill:#52c4af;fill-opacity:1;stroke-width:7.5">MEDIKIT</tspan></text>


</g></g></svg>