<?xml version="1.0" encoding="UTF-8" standalone="no"?>
<!-- Generator: Adobe Illustrator 19.0.0, SVG Export Plug-In . SVG Version: 6.00 Build 0)  -->

<svg
   xmlns:dc="http://purl.org/dc/elements/1.1/"
   xmlns:cc="http://creativecommons.org/ns#"
   xmlns:rdf="http://www.w3.org/1999/02/22-rdf-syntax-ns#"
   xmlns:svg="http://www.w3.org/2000/svg"
   xmlns="http://www.w3.org/2000/svg"
   xmlns:sodipodi="http://sodipodi.sourceforge.net/DTD/sodipodi-0.dtd"
   xmlns:inkscape="http://www.inkscape.org/namespaces/inkscape"
   version="1.1"
   id="Capa_1"
   x="0px"
   y="0px"
   viewBox="0 0 24 23.999998"
   xml:space="preserve"
   sodipodi:docname="gift.svg"
   width="24"
   height="23.999998"
   inkscape:version="0.92.3 (2405546, 2018-03-11)"><metadata
   id="metadata899"><rdf:RDF><cc:Work
       rdf:about=""><dc:format>image/svg+xml</dc:format><dc:type
         rdf:resource="http://purl.org/dc/dcmitype/StillImage" /></cc:Work></rdf:RDF></metadata><defs
   id="defs897" /><sodipodi:namedview
   pagecolor="#ffffff"
   bordercolor="#666666"
   borderopacity="1"
   objecttolerance="10"
   gridtolerance="10"
   guidetolerance="10"
   inkscape:pageopacity="0"
   inkscape:pageshadow="2"
   inkscape:window-width="2400"
   inkscape:window-height="1271"
   id="namedview895"
   showgrid="false"
   inkscape:zoom="5.2149125"
   inkscape:cx="138.1312"
   inkscape:cy="-46.090634"
   inkscape:window-x="2391"
   inkscape:window-y="-9"
   inkscape:window-maximized="1"
   inkscape:current-layer="Capa_1" />
<g
   id="g862"
   transform="matrix(0.046875,0,0,0.0500655,0,-0.81676847)">
	<g
   id="g860">
		<path
   d="M 480,143.686 H 378.752 c 7.264,-4.96 13.504,-9.888 17.856,-14.304 25.792,-25.952 25.792,-68.192 0,-94.144 -25.056,-25.216 -68.768,-25.248 -93.856,0 -13.856,13.92 -50.688,70.592 -45.6,108.448 h -2.304 C 259.904,105.83 223.104,49.158 209.248,35.238 184.16,9.99 140.448,10.022 115.392,35.238 89.6,61.19 89.6,103.43 115.36,129.382 c 4.384,4.416 10.624,9.344 17.888,14.304 H 32 c -17.632,0 -32,14.368 -32,32 v 80 c 0,8.832 7.168,16 16,16 h 16 v 192 c 0,17.632 14.368,32 32,32 h 384 c 17.632,0 32,-14.368 32,-32 v -192 h 16 c 8.832,0 16,-7.168 16,-16 v -80 c 0,-17.632 -14.368,-32 -32,-32 z M 138.08,57.798 c 6.496,-6.528 15.104,-10.112 24.256,-10.112 9.12,0 17.728,3.584 24.224,10.112 21.568,21.696 43.008,77.12 35.552,84.832 0,0 -1.344,1.056 -5.92,1.056 -22.112,0 -64.32,-22.976 -78.112,-36.864 -13.408,-13.504 -13.408,-35.52 0,-49.024 z M 240,463.686 H 64 v -192 h 176 z m 0,-224 H 32 v -64 H 216.192 240 Z M 325.44,57.798 c 12.992,-13.024 35.52,-12.992 48.48,0 13.408,13.504 13.408,35.52 0,49.024 -13.792,13.888 -56,36.864 -78.112,36.864 -4.576,0 -5.92,-1.024 -5.952,-1.056 -7.424,-7.712 14.016,-63.136 35.584,-84.832 z M 448,463.686 H 272 v -192 h 176 z m 32,-224 H 272 v -64 H 295.808 480 Z"
   id="path858"
   inkscape:connector-curvature="0" />
	</g>
</g>
<g
   id="g864"
   transform="matrix(0.046875,0,0,0.0500655,0,-0.81676847)">
</g>
<g
   id="g866"
   transform="matrix(0.046875,0,0,0.0500655,0,-0.81676847)">
</g>
<g
   id="g868"
   transform="matrix(0.046875,0,0,0.0500655,0,-0.81676847)">
</g>
<g
   id="g870"
   transform="matrix(0.046875,0,0,0.0500655,0,-0.81676847)">
</g>
<g
   id="g872"
   transform="matrix(0.046875,0,0,0.0500655,0,-0.81676847)">
</g>
<g
   id="g874"
   transform="matrix(0.046875,0,0,0.0500655,0,-0.81676847)">
</g>
<g
   id="g876"
   transform="matrix(0.046875,0,0,0.0500655,0,-0.81676847)">
</g>
<g
   id="g878"
   transform="matrix(0.046875,0,0,0.0500655,0,-0.81676847)">
</g>
<g
   id="g880"
   transform="matrix(0.046875,0,0,0.0500655,0,-0.81676847)">
</g>
<g
   id="g882"
   transform="matrix(0.046875,0,0,0.0500655,0,-0.81676847)">
</g>
<g
   id="g884"
   transform="matrix(0.046875,0,0,0.0500655,0,-0.81676847)">
</g>
<g
   id="g886"
   transform="matrix(0.046875,0,0,0.0500655,0,-0.81676847)">
</g>
<g
   id="g888"
   transform="matrix(0.046875,0,0,0.0500655,0,-0.81676847)">
</g>
<g
   id="g890"
   transform="matrix(0.046875,0,0,0.0500655,0,-0.81676847)">
</g>
<g
   id="g892"
   transform="matrix(0.046875,0,0,0.0500655,0,-0.81676847)">
</g>
</svg>