<?xml version="1.0" encoding="UTF-8" standalone="no"?>
<svg
   xmlns:dc="http://purl.org/dc/elements/1.1/"
   xmlns:cc="http://creativecommons.org/ns#"
   xmlns:rdf="http://www.w3.org/1999/02/22-rdf-syntax-ns#"
   xmlns:svg="http://www.w3.org/2000/svg"
   xmlns="http://www.w3.org/2000/svg"
   xmlns:sodipodi="http://sodipodi.sourceforge.net/DTD/sodipodi-0.dtd"
   xmlns:inkscape="http://www.inkscape.org/namespaces/inkscape"
   id="Capa_1"
   enable-background="new 0 0 512 512"
   height="24.000002"
   viewBox="0 0 23.999998 24.000002"
   width="23.999998"
   version="1.1"
   sodipodi:docname="medical-prescription.svg"
   inkscape:version="0.92.3 (2405546, 2018-03-11)">
  <metadata
     id="metadata855">
    <rdf:RDF>
      <cc:Work
         rdf:about="">
        <dc:format>image/svg+xml</dc:format>
        <dc:type
           rdf:resource="http://purl.org/dc/dcmitype/StillImage" />
      </cc:Work>
    </rdf:RDF>
  </metadata>
  <defs
     id="defs853" />
  <sodipodi:namedview
     pagecolor="#ffffff"
     bordercolor="#666666"
     borderopacity="1"
     objecttolerance="10"
     gridtolerance="10"
     guidetolerance="10"
     inkscape:pageopacity="0"
     inkscape:pageshadow="2"
     inkscape:window-width="1920"
     inkscape:window-height="1001"
     id="namedview851"
     showgrid="false"
     inkscape:zoom="12.625"
     inkscape:cx="-6.7371023"
     inkscape:cy="14.433614"
     inkscape:window-x="-9"
     inkscape:window-y="-9"
     inkscape:window-maximized="1"
     inkscape:current-layer="Capa_1" />
  <g
     id="g848"
     transform="matrix(0.04687503,0,0,0.05069464,0,-0.97779822)">
    <path
       d="m 118.755,90.816 c 0,-16.009 -13.571,-29.034 -30.253,-29.034 H 66.484 c -0.004,0 -0.009,0 -0.014,0 -0.004,0 -0.009,0 -0.013,0 -4.142,0 -7.501,3.358 -7.501,7.501 v 82.858 c 0,4.142 3.358,7.501 7.501,7.501 4.143,0 7.501,-3.358 7.501,-7.501 v -31.024 c 1.052,1.195 41.665,47.346 41.812,47.512 l -23.341,20.543 c -3.11,2.737 -3.412,7.476 -0.675,10.586 2.74,3.114 7.481,3.408 10.586,0.675 l 23.341,-20.543 20.543,23.341 c 2.74,3.114 7.481,3.408 10.586,0.675 3.11,-2.737 3.412,-7.476 0.675,-10.586 l -20.543,-23.341 23.341,-20.543 c 3.11,-2.737 3.412,-7.476 0.675,-10.586 -2.737,-3.11 -7.476,-3.412 -10.586,-0.675 l -23.341,20.543 c -2.185,-2.483 10.024,11.391 -34.442,-39.14 14.754,-1.921 26.166,-14.083 26.166,-28.762 z m -30.252,14.033 c -3.317,0 -9.467,0.028 -14.408,0.053 C 74.018,90.671 74.06,94.515 74.009,76.782 h 14.494 c 8.267,0 15.252,6.427 15.252,14.033 -10e-4,7.608 -6.985,14.034 -15.252,14.034 z"
       id="path836"
       inkscape:connector-curvature="0" />
    <path
       d="M 335.357,233.534 H 66.458 c -4.142,0 -7.501,3.358 -7.501,7.501 0,4.143 3.358,7.501 7.501,7.501 h 268.899 c 4.142,0 7.501,-3.358 7.501,-7.501 0,-4.143 -3.359,-7.501 -7.501,-7.501 z"
       id="path838"
       inkscape:connector-curvature="0" />
    <path
       d="m 342.857,287.039 c 0,-4.142 -3.358,-7.501 -7.501,-7.501 H 66.458 c -4.142,0 -7.501,3.358 -7.501,7.501 0,4.143 3.358,7.501 7.501,7.501 h 268.899 c 4.142,0 7.5,-3.358 7.5,-7.501 z"
       id="path840"
       inkscape:connector-curvature="0" />
    <path
       d="m 66.458,325.543 c -4.142,0 -7.501,3.358 -7.501,7.501 0,4.143 3.358,7.501 7.501,7.501 h 88.651 c 4.142,0 7.501,-3.358 7.501,-7.501 0,-4.143 -3.358,-7.501 -7.501,-7.501 z"
       id="path842"
       inkscape:connector-curvature="0" />
    <path
       d="m 7.501,256.035 c 4.142,0 7.501,-3.358 7.501,-7.501 V 69.579 c 0,-19.459 15.831,-35.29 35.29,-35.29 h 260.011 v 71.257 c 0,26.059 21.182,47.466 47.466,47.466 h 71.262 v 35.765 c 0,4.142 3.358,7.501 7.501,7.501 4.143,0 7.501,-3.358 7.501,-7.501 v -43.265 c 0,-1.883 -0.749,-3.854 -2.194,-5.301 -10e-4,-0.001 -0.002,-0.002 -0.003,-0.003 L 323.106,21.48 c -1.291,-1.291 -3.314,-2.192 -5.309,-2.192 H 50.291 C 22.561,19.288 0,41.849 0,69.579 v 178.956 c 0,4.142 3.358,7.5 7.501,7.5 z M 357.768,138.012 c -17.901,0 -32.465,-14.564 -32.465,-32.465 V 44.892 l 93.12,93.12 z"
       id="path844"
       inkscape:connector-curvature="0" />
    <path
       d="m 50.291,397.559 h 231.592 c -6.413,25.241 0.223,53.144 19.938,72.858 29.747,29.725 78.149,29.726 107.899,-0.002 41.885,-41.88 3.373,-3.382 79.97,-79.96 0,0 10e-4,-10e-4 10e-4,-10e-4 29.745,-29.757 29.745,-78.165 -10e-4,-107.91 -12.437,-12.437 -28.415,-20.038 -45.659,-21.891 V 218.78 c 0,-4.142 -3.358,-7.501 -7.501,-7.501 -4.143,0 -7.501,3.358 -7.501,7.501 v 41.717 c -0.051,0.004 -0.101,0.012 -0.152,0.017 -29.402,2.61 -45.427,20.76 -47.088,22.03 l -39.985,39.985 c -33.747,35.132 -45.389,41.822 -54.395,60.029 H 50.291 c -19.459,0 -35.29,-15.831 -35.29,-35.29 v -68.732 c 0,-4.142 -3.358,-7.501 -7.501,-7.501 -4.143,0 -7.5,3.36 -7.5,7.502 v 68.732 c 0,27.73 22.561,50.29 50.291,50.29 z m 348.824,62.247 c -23.899,23.883 -62.788,23.884 -86.689,0.002 -23.742,-23.742 -24.065,-62.563 0,-86.687 l 34.681,-34.681 c 27.581,27.581 59.105,59.105 86.687,86.686 z m 79.967,-79.957 -34.68,34.671 -86.687,-86.687 c 37.218,-37.18 38.661,-39.802 49.488,-45.612 15.036,-7.92 29.362,-7.016 29.261,-7.005 16.101,0.186 31.212,6.53 42.618,17.936 23.899,23.898 23.899,62.79 0,86.697 z"
       id="path846"
       inkscape:connector-curvature="0" />
  </g>
</svg>
