<?xml version="1.0" encoding="UTF-8" standalone="no"?>
<!-- Generator: Adobe Illustrator 16.0.0, SVG Export Plug-In . SVG Version: 6.00 Build 0)  -->

<svg
   xmlns:dc="http://purl.org/dc/elements/1.1/"
   xmlns:cc="http://creativecommons.org/ns#"
   xmlns:rdf="http://www.w3.org/1999/02/22-rdf-syntax-ns#"
   xmlns:svg="http://www.w3.org/2000/svg"
   xmlns="http://www.w3.org/2000/svg"
   xmlns:sodipodi="http://sodipodi.sourceforge.net/DTD/sodipodi-0.dtd"
   xmlns:inkscape="http://www.inkscape.org/namespaces/inkscape"
   version="1.1"
   id="Capa_1"
   x="0px"
   y="0px"
   width="32"
   height="32"
   viewBox="0 0 32 32"
   xml:space="preserve"
   sodipodi:docname="not-completed.svg"
   inkscape:version="0.92.3 (2405546, 2018-03-11)"><metadata
   id="metadata42"><rdf:RDF><cc:Work
       rdf:about=""><dc:format>image/svg+xml</dc:format><dc:type
         rdf:resource="http://purl.org/dc/dcmitype/StillImage" /></cc:Work></rdf:RDF></metadata><defs
   id="defs40" /><sodipodi:namedview
   pagecolor="#ffffff"
   bordercolor="#666666"
   borderopacity="1"
   objecttolerance="10"
   gridtolerance="10"
   guidetolerance="10"
   inkscape:pageopacity="0"
   inkscape:pageshadow="2"
   inkscape:window-width="1920"
   inkscape:window-height="1001"
   id="namedview38"
   showgrid="false"
   inkscape:zoom="29.615686"
   inkscape:cx="8.805508"
   inkscape:cy="18.164871"
   inkscape:window-x="-9"
   inkscape:window-y="-9"
   inkscape:window-maximized="1"
   inkscape:current-layer="radio-button-on" />
<g
   id="g5"
   transform="scale(0.0627451)">
	<g
   id="radio-button-on">
		<path
   id="path2"
   transform="scale(15.9375)"
   style="stroke-width:0.0627451"
   d="M 16,0 C 7.1999991,0 0,7.1999991 0,16 0,24.8 7.1999991,32 16,32 24.8,32 32,24.8 32,16 32,7.1999991 24.8,0 16,0 Z m 0,3.1992188 C 23.04,3.1992188 28.800781,8.9599994 28.800781,16 28.800781,23.04 23.04,28.800781 16,28.800781 8.9599994,28.800781 3.1992187,23.04 3.1992188,16 3.1992188,8.9599994 8.9599994,3.1992187 16,3.1992188 Z m -3.466797,9.4804692 c 0.0058,0.03201 0.0053,0.06151 0.01172,0.09375 0.0053,-0.0084 0.0086,-0.01785 0.01172,-0.02734 -0.009,-0.02143 -0.01472,-0.04444 -0.02344,-0.06641 z"
   inkscape:connector-curvature="0" />
	</g>
</g>
<g
   id="g7"
   transform="scale(0.0627451)">
</g>
<g
   id="g9"
   transform="scale(0.0627451)">
</g>
<g
   id="g11"
   transform="scale(0.0627451)">
</g>
<g
   id="g13"
   transform="scale(0.0627451)">
</g>
<g
   id="g15"
   transform="scale(0.0627451)">
</g>
<g
   id="g17"
   transform="scale(0.0627451)">
</g>
<g
   id="g19"
   transform="scale(0.0627451)">
</g>
<g
   id="g21"
   transform="scale(0.0627451)">
</g>
<g
   id="g23"
   transform="scale(0.0627451)">
</g>
<g
   id="g25"
   transform="scale(0.0627451)">
</g>
<g
   id="g27"
   transform="scale(0.0627451)">
</g>
<g
   id="g29"
   transform="scale(0.0627451)">
</g>
<g
   id="g31"
   transform="scale(0.0627451)">
</g>
<g
   id="g33"
   transform="scale(0.0627451)">
</g>
<g
   id="g35"
   transform="scale(0.0627451)">
</g>
</svg>