<?xml version="1.0" encoding="UTF-8" standalone="no"?>
<svg
   xmlns:dc="http://purl.org/dc/elements/1.1/"
   xmlns:cc="http://creativecommons.org/ns#"
   xmlns:rdf="http://www.w3.org/1999/02/22-rdf-syntax-ns#"
   xmlns:svg="http://www.w3.org/2000/svg"
   xmlns="http://www.w3.org/2000/svg"
   xmlns:sodipodi="http://sodipodi.sourceforge.net/DTD/sodipodi-0.dtd"
   xmlns:inkscape="http://www.inkscape.org/namespaces/inkscape"
   id="Capa_1"
   enable-background="new 0 0 509.435 509.435"
   height="24"
   viewBox="0 0 23.879764 23.879766"
   width="23.999998"
   version="1.1"
   sodipodi:docname="patient-folder.svg"
   inkscape:version="0.92.3 (2405546, 2018-03-11)">
  <metadata
     id="metadata968">
    <rdf:RDF>
      <cc:Work
         rdf:about="">
        <dc:format>image/svg+xml</dc:format>
        <dc:type
           rdf:resource="http://purl.org/dc/dcmitype/StillImage" />
      </cc:Work>
    </rdf:RDF>
  </metadata>
  <defs
     id="defs966" />
  <sodipodi:namedview
     pagecolor="#ffffff"
     bordercolor="#666666"
     borderopacity="1"
     objecttolerance="10"
     gridtolerance="10"
     guidetolerance="10"
     inkscape:pageopacity="0"
     inkscape:pageshadow="2"
     inkscape:window-width="1920"
     inkscape:window-height="1001"
     id="namedview964"
     showgrid="false"
     inkscape:zoom="5.2149125"
     inkscape:cx="96.268682"
     inkscape:cy="19.228231"
     inkscape:window-x="-9"
     inkscape:window-y="-9"
     inkscape:window-maximized="1"
     inkscape:current-layer="Capa_1" />
  <g
     id="g961"
     transform="matrix(0.04687509,0,0,0.04974951,0,-0.73216354)">
    <path
       d="m 470,254.717 v -105 h -60 v -135 H 60 v 75 H 0 v 405 h 446.577 l 62.857,-240 z m -30,-75 v 75 h -30 v -75 z m -60,-135 v 210 H 270 v -28.816 c 0,-14.611 -6.307,-28.509 -17.302,-38.13 l -16.644,-14.563 c 5.631,-8.09 8.945,-17.908 8.945,-28.491 v -20 c 0,-27.57 -22.43,-50 -50,-50 -27.57,0 -50,22.43 -50,50 v 20 c 0,10.583 3.314,20.401 8.946,28.491 l -16.643,14.563 C 126.307,197.392 120,211.29 120,225.901 v 28.816 H 90 v -210 z m -165,100 c 0,11.028 -8.972,20 -20,20 -11.028,0 -20,-8.972 -20,-20 v -20 c 0,-11.028 8.972,-20 20,-20 11.028,0 20,8.972 20,20 z m -57.942,65.632 21.179,-18.532 c 5.244,1.872 10.885,2.9 16.763,2.9 5.878,0 11.52,-1.028 16.764,-2.9 l 21.18,18.532 c 4.484,3.924 7.057,9.593 7.057,15.552 v 28.816 h -90 v -28.816 c -0.001,-5.959 2.571,-11.628 7.057,-15.552 z M 30,119.717 h 30 v 147.899 l -30,105 z m 393.423,345 H 34.886 l 51.429,-180 h 384.251 z"
       id="path955"
       inkscape:connector-curvature="0" />
    <path
       d="m 275,74.717 h 85 v 30 h -85 z"
       id="path957"
       inkscape:connector-curvature="0" />
    <path
       d="m 305,134.717 h 55 v 30 h -55 z"
       id="path959"
       inkscape:connector-curvature="0" />
  </g>
</svg>
