<?xml version="1.0" encoding="UTF-8" standalone="no"?>
<!-- Generator: Adobe Illustrator 16.0.0, SVG Export Plug-In . SVG Version: 6.00 Build 0)  -->

<svg
   xmlns:dc="http://purl.org/dc/elements/1.1/"
   xmlns:cc="http://creativecommons.org/ns#"
   xmlns:rdf="http://www.w3.org/1999/02/22-rdf-syntax-ns#"
   xmlns:svg="http://www.w3.org/2000/svg"
   xmlns="http://www.w3.org/2000/svg"
   xmlns:sodipodi="http://sodipodi.sourceforge.net/DTD/sodipodi-0.dtd"
   xmlns:inkscape="http://www.inkscape.org/namespaces/inkscape"
   version="1.1"
   id="Capa_1"
   x="0px"
   y="0px"
   width="32"
   height="32"
   viewBox="0 0 32 32"
   xml:space="preserve"
   sodipodi:docname="radio.svg"
   inkscape:version="0.92.3 (2405546, 2018-03-11)"><metadata
   id="metadata42"><rdf:RDF><cc:Work
       rdf:about=""><dc:format>image/svg+xml</dc:format><dc:type
         rdf:resource="http://purl.org/dc/dcmitype/StillImage" /></cc:Work></rdf:RDF></metadata><defs
   id="defs40" /><sodipodi:namedview
   pagecolor="#ffffff"
   bordercolor="#666666"
   borderopacity="1"
   objecttolerance="10"
   gridtolerance="10"
   guidetolerance="10"
   inkscape:pageopacity="0"
   inkscape:pageshadow="2"
   inkscape:window-width="1920"
   inkscape:window-height="1001"
   id="namedview38"
   showgrid="false"
   inkscape:zoom="0.4627451"
   inkscape:cx="255"
   inkscape:cy="255"
   inkscape:window-x="-9"
   inkscape:window-y="-9"
   inkscape:window-maximized="1"
   inkscape:current-layer="Capa_1" />
<g
   id="g5"
   transform="scale(0.0627451)">
	<g
   id="radio-button-on">
		<path
   d="m 255,127.5 c -71.4,0 -127.5,56.1 -127.5,127.5 0,71.4 56.1,127.5 127.5,127.5 71.4,0 127.5,-56.1 127.5,-127.5 0,-71.4 -56.1,-127.5 -127.5,-127.5 z M 255,0 C 114.75,0 0,114.75 0,255 0,395.25 114.75,510 255,510 395.25,510 510,395.25 510,255 510,114.75 395.25,0 255,0 Z m 0,459 C 142.8,459 51,367.2 51,255 51,142.8 142.8,51 255,51 c 112.2,0 204,91.8 204,204 0,112.2 -91.8,204 -204,204 z"
   id="path2"
   inkscape:connector-curvature="0" />
	</g>
</g>
<g
   id="g7"
   transform="scale(0.0627451)">
</g>
<g
   id="g9"
   transform="scale(0.0627451)">
</g>
<g
   id="g11"
   transform="scale(0.0627451)">
</g>
<g
   id="g13"
   transform="scale(0.0627451)">
</g>
<g
   id="g15"
   transform="scale(0.0627451)">
</g>
<g
   id="g17"
   transform="scale(0.0627451)">
</g>
<g
   id="g19"
   transform="scale(0.0627451)">
</g>
<g
   id="g21"
   transform="scale(0.0627451)">
</g>
<g
   id="g23"
   transform="scale(0.0627451)">
</g>
<g
   id="g25"
   transform="scale(0.0627451)">
</g>
<g
   id="g27"
   transform="scale(0.0627451)">
</g>
<g
   id="g29"
   transform="scale(0.0627451)">
</g>
<g
   id="g31"
   transform="scale(0.0627451)">
</g>
<g
   id="g33"
   transform="scale(0.0627451)">
</g>
<g
   id="g35"
   transform="scale(0.0627451)">
</g>
</svg>